<?xml version="1.0" standalone="no"?>
<!DOCTYPE svg PUBLIC "-//W3C//DTD SVG 20010904//EN"
 "http://www.w3.org/TR/2001/REC-SVG-20010904/DTD/svg10.dtd">
<svg version="1.0" xmlns="http://www.w3.org/2000/svg"
 width="200.000000pt" height="44.000000pt" viewBox="0 0 200.000000 44.000000"
 preserveAspectRatio="xMidYMid meet">

<g transform="translate(0.000000,44.000000) scale(0.100000,-0.100000)"
fill="#000000" stroke="none">
<path d="M40 230 l0 -150 50 0 51 0 -3 72 c-2 46 -7 73 -15 76 -10 3 -13 -13
-13 -57 0 -54 -2 -61 -20 -61 -19 0 -20 7 -20 105 0 58 3 105 8 105 4 0 61
-54 127 -120 66 -66 125 -120 132 -120 9 0 13 18 13 58 l1 57 20 -38 c27 -51
72 -77 134 -77 72 0 124 39 145 108 6 20 8 10 9 -40 l1 -68 50 0 c49 0 50 1
50 30 0 40 27 40 65 0 26 -27 35 -30 92 -30 l64 0 -38 45 c-20 25 -45 45 -55
45 -24 0 -23 -9 4 -37 21 -22 21 -23 2 -23 -11 0 -33 14 -49 30 -23 24 -37 30
-72 30 -41 0 -43 -1 -43 -30 0 -23 -4 -30 -20 -30 -17 0 -20 7 -20 50 l0 50
100 0 c105 0 151 13 164 45 13 35 6 76 -19 100 -23 24 -30 25 -150 25 l-125 0
0 -50 0 -50 115 0 c96 0 115 3 115 15 0 12 -18 15 -100 15 -93 0 -100 1 -100
20 0 19 7 20 101 20 114 0 139 -9 139 -48 0 -47 -14 -52 -152 -52 -120 0 -128
1 -128 19 0 44 -84 111 -140 111 -16 0 -20 -7 -20 -29 0 -22 -7 -34 -30 -47
-80 -48 -43 -164 51 -164 11 0 34 13 50 29 35 35 38 78 9 112 l-21 24 7 -48
c5 -38 3 -52 -11 -67 -20 -22 -46 -25 -76 -10 -32 18 -21 100 13 100 4 0 8
-12 8 -26 0 -16 5 -24 13 -22 7 3 13 27 15 62 3 54 4 57 25 50 60 -18 97 -89
77 -149 -28 -84 -136 -115 -198 -57 -54 51 -55 126 -2 177 28 27 40 55 23 55
-16 -1 -52 -36 -72 -70 l-21 -35 0 58 0 57 -50 0 -50 0 0 -42 0 -42 -44 43
c-30 29 -50 42 -65 39 -19 -3 -10 -14 59 -83 l80 -80 0 68 c0 60 2 67 20 67
19 0 20 -7 20 -105 0 -58 -3 -105 -8 -105 -4 0 -61 54 -127 120 -66 66 -125
120 -132 120 -10 0 -13 -36 -13 -150z"/>
<path d="M1000 330 l0 -50 34 0 c18 0 39 7 46 15 11 13 8 15 -19 15 -24 0 -31
4 -31 20 0 19 7 20 120 20 113 0 120 -1 120 -20 0 -18 -7 -20 -60 -20 -51 0
-65 -4 -85 -25 -23 -22 -25 -32 -25 -115 l0 -90 50 0 51 0 -3 82 c-2 54 -7 83
-15 86 -10 3 -13 -15 -13 -67 0 -64 -2 -71 -20 -71 -18 0 -20 7 -20 68 0 90
12 102 103 102 l67 0 0 50 0 50 -150 0 -150 0 0 -50z"/>
<path d="M1440 345 c0 -24 -5 -35 -14 -35 -23 0 -56 -50 -56 -85 0 -38 46 -85
83 -85 61 1 102 57 85 118 -13 47 -28 39 -26 -14 2 -51 -16 -74 -57 -74 -44 0
-73 68 -43 98 18 18 26 15 30 -10 2 -12 9 -23 16 -26 9 -3 12 13 12 57 0 72
11 77 64 30 87 -76 38 -209 -77 -209 -116 0 -165 139 -76 214 16 14 29 29 29
35 0 22 -24 10 -62 -29 -35 -38 -38 -45 -38 -97 0 -96 57 -153 153 -153 54 0
102 30 128 80 l19 35 0 -58 0 -57 50 0 51 0 -3 72 c-2 46 -7 73 -15 76 -10 3
-13 -13 -13 -57 0 -54 -2 -61 -20 -61 -19 0 -20 7 -20 105 0 58 3 105 8 105 4
0 61 -54 127 -120 66 -66 125 -120 132 -120 10 0 13 36 13 150 l0 150 -49 0
-50 0 -3 -42 -3 -41 -43 41 c-24 23 -53 42 -65 42 -17 0 -5 -16 58 -80 l80
-81 3 66 c3 57 5 65 22 65 19 0 20 -7 20 -105 0 -58 -3 -105 -8 -105 -4 0 -61
54 -127 120 -66 66 -125 120 -132 120 -9 0 -13 -18 -13 -57 l0 -58 -23 39
c-24 43 -76 76 -119 76 -25 0 -28 -3 -28 -35z"/>
</g>
</svg>
